<mxfile host="app.diagrams.net" agent="Mozilla/5.0 (Windows NT 10.0; Win64; x64) AppleWebKit/537.36 (KHTML, like Gecko) Chrome/133.0.0.0 Safari/537.36" version="26.0.16">
  <diagram id="C5RBs43oDa-KdzZeNtuy" name="Page-1">
    <mxGraphModel dx="999" dy="538" grid="1" gridSize="10" guides="1" tooltips="1" connect="1" arrows="1" fold="1" page="1" pageScale="1" pageWidth="827" pageHeight="1169" math="0" shadow="0">
      <root>
        <mxCell id="WIyWlLk6GJQsqaUBKTNV-0" />
        <mxCell id="WIyWlLk6GJQsqaUBKTNV-1" parent="WIyWlLk6GJQsqaUBKTNV-0" />
        <mxCell id="d3JeOFxIO3NtpzxKEAC_-0" value="User" style="swimlane;fontStyle=0;childLayout=stackLayout;horizontal=1;startSize=30;horizontalStack=0;resizeParent=1;resizeParentMax=0;resizeLast=0;collapsible=1;marginBottom=0;whiteSpace=wrap;html=1;fillColor=#f8cecc;strokeColor=#b85450;" vertex="1" parent="WIyWlLk6GJQsqaUBKTNV-1">
          <mxGeometry x="60" y="180" width="210" height="270" as="geometry" />
        </mxCell>
        <mxCell id="d3JeOFxIO3NtpzxKEAC_-1" value="&lt;font style=&quot;color: rgb(13, 0, 255);&quot;&gt;PK&lt;/font&gt;&lt;font style=&quot;color: rgb(255, 0, 0);&quot;&gt;*&amp;nbsp;&lt;/font&gt;&lt;font style=&quot;color: rgb(127, 0, 255);&quot;&gt;Integer&amp;nbsp;&lt;/font&gt;id" style="text;strokeColor=none;fillColor=#fff2cc;align=left;verticalAlign=middle;spacingLeft=4;spacingRight=4;overflow=hidden;points=[[0,0.5],[1,0.5]];portConstraint=eastwest;rotatable=0;whiteSpace=wrap;html=1;" vertex="1" parent="d3JeOFxIO3NtpzxKEAC_-0">
          <mxGeometry y="30" width="210" height="30" as="geometry" />
        </mxCell>
        <mxCell id="d3JeOFxIO3NtpzxKEAC_-2" value="&lt;font style=&quot;color: rgb(255, 0, 0);&quot;&gt;*&amp;nbsp;&lt;/font&gt;&lt;font style=&quot;color: rgb(127, 0, 255);&quot;&gt;String&amp;nbsp;&lt;/font&gt;email" style="text;strokeColor=none;fillColor=#fff2cc;align=left;verticalAlign=middle;spacingLeft=4;spacingRight=4;overflow=hidden;points=[[0,0.5],[1,0.5]];portConstraint=eastwest;rotatable=0;whiteSpace=wrap;html=1;" vertex="1" parent="d3JeOFxIO3NtpzxKEAC_-0">
          <mxGeometry y="60" width="210" height="30" as="geometry" />
        </mxCell>
        <mxCell id="d3JeOFxIO3NtpzxKEAC_-3" value="&lt;font style=&quot;color: rgb(255, 0, 0);&quot;&gt;*&lt;font style=&quot;color: rgb(255, 0, 0);&quot;&gt;&amp;nbsp;&lt;/font&gt;&lt;font style=&quot;color: rgb(127, 0, 255);&quot;&gt;String&lt;/font&gt;&amp;nbsp;&lt;/font&gt;password" style="text;strokeColor=none;fillColor=#fff2cc;align=left;verticalAlign=middle;spacingLeft=4;spacingRight=4;overflow=hidden;points=[[0,0.5],[1,0.5]];portConstraint=eastwest;rotatable=0;whiteSpace=wrap;html=1;" vertex="1" parent="d3JeOFxIO3NtpzxKEAC_-0">
          <mxGeometry y="90" width="210" height="30" as="geometry" />
        </mxCell>
        <mxCell id="d3JeOFxIO3NtpzxKEAC_-8" value="&lt;font style=&quot;color: rgb(13, 0, 255);&quot;&gt;PK&lt;/font&gt;&lt;font style=&quot;color: rgb(255, 0, 0);&quot;&gt;*&amp;nbsp;&lt;/font&gt;&lt;font style=&quot;color: rgb(0, 0, 0);&quot;&gt;&lt;font style=&quot;color: rgb(255, 0, 0);&quot;&gt;&amp;nbsp;&lt;/font&gt;&lt;font style=&quot;color: rgb(127, 0, 255);&quot;&gt;Integer&amp;nbsp;&lt;/font&gt;documentNumber&lt;/font&gt;" style="text;strokeColor=none;fillColor=#fff2cc;align=left;verticalAlign=middle;spacingLeft=4;spacingRight=4;overflow=hidden;points=[[0,0.5],[1,0.5]];portConstraint=eastwest;rotatable=0;whiteSpace=wrap;html=1;" vertex="1" parent="d3JeOFxIO3NtpzxKEAC_-0">
          <mxGeometry y="120" width="210" height="30" as="geometry" />
        </mxCell>
        <mxCell id="d3JeOFxIO3NtpzxKEAC_-12" value="&lt;font style=&quot;color: rgb(255, 0, 0);&quot;&gt;*&lt;font style=&quot;color: rgb(255, 0, 0);&quot;&gt;&amp;nbsp;&lt;/font&gt;&lt;font style=&quot;color: rgb(127, 0, 255);&quot;&gt;String&lt;/font&gt;&amp;nbsp;&lt;/font&gt;adress" style="text;strokeColor=none;fillColor=#fff2cc;align=left;verticalAlign=middle;spacingLeft=4;spacingRight=4;overflow=hidden;points=[[0,0.5],[1,0.5]];portConstraint=eastwest;rotatable=0;whiteSpace=wrap;html=1;" vertex="1" parent="d3JeOFxIO3NtpzxKEAC_-0">
          <mxGeometry y="150" width="210" height="30" as="geometry" />
        </mxCell>
        <mxCell id="d3JeOFxIO3NtpzxKEAC_-15" value="&lt;font style=&quot;color: rgb(255, 0, 0);&quot;&gt;*&lt;font style=&quot;color: rgb(255, 0, 0);&quot;&gt;&amp;nbsp;&lt;/font&gt;&lt;font style=&quot;color: rgb(127, 0, 255);&quot;&gt;String&lt;/font&gt;&amp;nbsp;&lt;/font&gt;username" style="text;strokeColor=none;fillColor=#fff2cc;align=left;verticalAlign=middle;spacingLeft=4;spacingRight=4;overflow=hidden;points=[[0,0.5],[1,0.5]];portConstraint=eastwest;rotatable=0;whiteSpace=wrap;html=1;" vertex="1" parent="d3JeOFxIO3NtpzxKEAC_-0">
          <mxGeometry y="180" width="210" height="30" as="geometry" />
        </mxCell>
        <mxCell id="d3JeOFxIO3NtpzxKEAC_-13" value="&lt;font style=&quot;color: rgb(255, 0, 0);&quot;&gt;* &lt;/font&gt;&lt;font style=&quot;color: rgb(127, 0, 255);&quot;&gt;Integer&lt;/font&gt;&lt;font style=&quot;color: rgb(255, 51, 51);&quot;&gt;&amp;nbsp;&lt;/font&gt;phone" style="text;strokeColor=none;fillColor=#fff2cc;align=left;verticalAlign=middle;spacingLeft=4;spacingRight=4;overflow=hidden;points=[[0,0.5],[1,0.5]];portConstraint=eastwest;rotatable=0;whiteSpace=wrap;html=1;" vertex="1" parent="d3JeOFxIO3NtpzxKEAC_-0">
          <mxGeometry y="210" width="210" height="30" as="geometry" />
        </mxCell>
        <mxCell id="d3JeOFxIO3NtpzxKEAC_-73" value="&lt;font style=&quot;color: rgb(255, 0, 0);&quot;&gt;* List&amp;lt;&lt;/font&gt;&lt;font style=&quot;color: rgb(255, 51, 51);&quot;&gt;&lt;span&gt;Account&amp;gt;&lt;/span&gt;&amp;nbsp;&lt;/font&gt;&lt;font style=&quot;color: rgb(0, 0, 0);&quot;&gt;accounts&amp;nbsp;&lt;/font&gt;" style="text;strokeColor=none;fillColor=#fff2cc;align=left;verticalAlign=middle;spacingLeft=4;spacingRight=4;overflow=hidden;points=[[0,0.5],[1,0.5]];portConstraint=eastwest;rotatable=0;whiteSpace=wrap;html=1;fontStyle=2" vertex="1" parent="d3JeOFxIO3NtpzxKEAC_-0">
          <mxGeometry y="240" width="210" height="30" as="geometry" />
        </mxCell>
        <mxCell id="d3JeOFxIO3NtpzxKEAC_-6" value="" style="endArrow=none;html=1;rounded=0;exitX=0;exitY=0;exitDx=0;exitDy=0;exitPerimeter=0;" edge="1" parent="d3JeOFxIO3NtpzxKEAC_-0" target="d3JeOFxIO3NtpzxKEAC_-3">
          <mxGeometry width="50" height="50" relative="1" as="geometry">
            <mxPoint y="120" as="sourcePoint" />
            <mxPoint x="100" y="200" as="targetPoint" />
          </mxGeometry>
        </mxCell>
        <mxCell id="d3JeOFxIO3NtpzxKEAC_-25" value="Account&amp;nbsp;" style="swimlane;fontStyle=0;childLayout=stackLayout;horizontal=1;startSize=30;horizontalStack=0;resizeParent=1;resizeParentMax=0;resizeLast=0;collapsible=1;marginBottom=0;whiteSpace=wrap;html=1;fillColor=#f8cecc;strokeColor=#b85450;" vertex="1" parent="WIyWlLk6GJQsqaUBKTNV-1">
          <mxGeometry x="380" y="210" width="220" height="240" as="geometry" />
        </mxCell>
        <mxCell id="d3JeOFxIO3NtpzxKEAC_-27" value="&lt;font style=&quot;color: rgb(13, 0, 255);&quot;&gt;PK&lt;/font&gt;&lt;font style=&quot;color: rgb(255, 0, 0);&quot;&gt;*&lt;/font&gt;&lt;font style=&quot;color: rgb(255, 0, 0);&quot;&gt;&amp;nbsp;&lt;/font&gt;&lt;font style=&quot;color: rgb(127, 0, 255);&quot;&gt;Integer&amp;nbsp;&lt;/font&gt;id" style="text;strokeColor=none;fillColor=#fff2cc;align=left;verticalAlign=middle;spacingLeft=4;spacingRight=4;overflow=hidden;points=[[0,0.5],[1,0.5]];portConstraint=eastwest;rotatable=0;whiteSpace=wrap;html=1;" vertex="1" parent="d3JeOFxIO3NtpzxKEAC_-25">
          <mxGeometry y="30" width="220" height="30" as="geometry" />
        </mxCell>
        <mxCell id="d3JeOFxIO3NtpzxKEAC_-32" value="&lt;font style=&quot;color: rgb(255, 0, 0);&quot;&gt;* &lt;/font&gt;&lt;font style=&quot;color: rgb(127, 0, 255);&quot;&gt;String &lt;/font&gt;&lt;font style=&quot;color: rgb(0, 0, 0);&quot;&gt;&lt;font&gt;b&lt;/font&gt;&lt;font&gt;ank&lt;/font&gt;&lt;/font&gt;" style="text;strokeColor=none;fillColor=#fff2cc;align=left;verticalAlign=middle;spacingLeft=4;spacingRight=4;overflow=hidden;points=[[0,0.5],[1,0.5]];portConstraint=eastwest;rotatable=0;whiteSpace=wrap;html=1;" vertex="1" parent="d3JeOFxIO3NtpzxKEAC_-25">
          <mxGeometry y="60" width="220" height="30" as="geometry" />
        </mxCell>
        <mxCell id="d3JeOFxIO3NtpzxKEAC_-28" value="&lt;font style=&quot;color: rgb(255, 0, 0);&quot;&gt;*&amp;nbsp;&lt;/font&gt;&lt;font style=&quot;color: rgb(127, 0, 255);&quot;&gt;Integer &lt;/font&gt;agency" style="text;strokeColor=none;fillColor=#fff2cc;align=left;verticalAlign=middle;spacingLeft=4;spacingRight=4;overflow=hidden;points=[[0,0.5],[1,0.5]];portConstraint=eastwest;rotatable=0;whiteSpace=wrap;html=1;" vertex="1" parent="d3JeOFxIO3NtpzxKEAC_-25">
          <mxGeometry y="90" width="220" height="30" as="geometry" />
        </mxCell>
        <mxCell id="d3JeOFxIO3NtpzxKEAC_-31" value="&lt;font style=&quot;color: rgb(255, 0, 0);&quot;&gt;*&amp;nbsp;&lt;/font&gt;&lt;font style=&quot;color: rgb(127, 0, 255);&quot;&gt;Integer &lt;/font&gt;&lt;font style=&quot;color: rgb(0, 0, 0);&quot;&gt;account&lt;/font&gt;" style="text;strokeColor=none;fillColor=#fff2cc;align=left;verticalAlign=middle;spacingLeft=4;spacingRight=4;overflow=hidden;points=[[0,0.5],[1,0.5]];portConstraint=eastwest;rotatable=0;whiteSpace=wrap;html=1;" vertex="1" parent="d3JeOFxIO3NtpzxKEAC_-25">
          <mxGeometry y="120" width="220" height="30" as="geometry" />
        </mxCell>
        <mxCell id="d3JeOFxIO3NtpzxKEAC_-33" value="&lt;font style=&quot;color: rgb(255, 0, 0);&quot;&gt;*&amp;nbsp;&lt;/font&gt;&lt;font style=&quot;color: rgb(127, 0, 255);&quot;&gt;Long&amp;nbsp;&lt;/font&gt;&lt;font style=&quot;color: rgb(0, 0, 0);&quot;&gt;balance&lt;/font&gt;" style="text;strokeColor=none;fillColor=#fff2cc;align=left;verticalAlign=middle;spacingLeft=4;spacingRight=4;overflow=hidden;points=[[0,0.5],[1,0.5]];portConstraint=eastwest;rotatable=0;whiteSpace=wrap;html=1;" vertex="1" parent="d3JeOFxIO3NtpzxKEAC_-25">
          <mxGeometry y="150" width="220" height="30" as="geometry" />
        </mxCell>
        <mxCell id="d3JeOFxIO3NtpzxKEAC_-38" value="&lt;font style=&quot;color: rgb(255, 0, 0);&quot;&gt;*&amp;nbsp;&lt;/font&gt;&lt;font style=&quot;color: rgb(127, 0, 255);&quot;&gt;Long&amp;nbsp;&lt;/font&gt;&lt;font style=&quot;color: rgb(0, 0, 0);&quot;&gt;balance&lt;/font&gt;" style="text;strokeColor=none;fillColor=#fff2cc;align=left;verticalAlign=middle;spacingLeft=4;spacingRight=4;overflow=hidden;points=[[0,0.5],[1,0.5]];portConstraint=eastwest;rotatable=0;whiteSpace=wrap;html=1;" vertex="1" parent="d3JeOFxIO3NtpzxKEAC_-25">
          <mxGeometry y="180" width="220" height="30" as="geometry" />
        </mxCell>
        <mxCell id="d3JeOFxIO3NtpzxKEAC_-39" value="&lt;font style=&quot;color: rgb(255, 0, 0);&quot;&gt;* List&amp;lt;&lt;/font&gt;&lt;font style=&quot;color: rgb(255, 51, 51);&quot;&gt;TransactionLog&amp;gt;&lt;/font&gt;&lt;font style=&quot;color: rgb(127, 0, 255);&quot;&gt;&amp;nbsp;&lt;/font&gt;&lt;font style=&quot;color: rgb(0, 0, 0);&quot;&gt;transactionLog&lt;/font&gt;" style="text;strokeColor=none;fillColor=#fff2cc;align=left;verticalAlign=middle;spacingLeft=4;spacingRight=4;overflow=hidden;points=[[0,0.5],[1,0.5]];portConstraint=eastwest;rotatable=0;whiteSpace=wrap;html=1;fontStyle=2" vertex="1" parent="d3JeOFxIO3NtpzxKEAC_-25">
          <mxGeometry y="210" width="220" height="30" as="geometry" />
        </mxCell>
        <mxCell id="d3JeOFxIO3NtpzxKEAC_-37" value="" style="fontSize=12;html=1;endArrow=ERoneToMany;startArrow=ERmandOne;rounded=0;exitX=1;exitY=0.5;exitDx=0;exitDy=0;entryX=0;entryY=0.5;entryDx=0;entryDy=0;" edge="1" parent="WIyWlLk6GJQsqaUBKTNV-1" source="d3JeOFxIO3NtpzxKEAC_-8" target="d3JeOFxIO3NtpzxKEAC_-28">
          <mxGeometry width="100" height="100" relative="1" as="geometry">
            <mxPoint x="280" y="320" as="sourcePoint" />
            <mxPoint x="400" y="330" as="targetPoint" />
          </mxGeometry>
        </mxCell>
        <mxCell id="d3JeOFxIO3NtpzxKEAC_-74" value="List" style="swimlane;fontStyle=0;childLayout=stackLayout;horizontal=1;startSize=30;horizontalStack=0;resizeParent=1;resizeParentMax=0;resizeLast=0;collapsible=1;marginBottom=0;whiteSpace=wrap;html=1;" vertex="1" parent="WIyWlLk6GJQsqaUBKTNV-1">
          <mxGeometry x="180" y="570" width="140" height="120" as="geometry" />
        </mxCell>
        <mxCell id="d3JeOFxIO3NtpzxKEAC_-75" value="Item 1" style="text;strokeColor=none;fillColor=none;align=left;verticalAlign=middle;spacingLeft=4;spacingRight=4;overflow=hidden;points=[[0,0.5],[1,0.5]];portConstraint=eastwest;rotatable=0;whiteSpace=wrap;html=1;" vertex="1" parent="d3JeOFxIO3NtpzxKEAC_-74">
          <mxGeometry y="30" width="140" height="30" as="geometry" />
        </mxCell>
        <mxCell id="d3JeOFxIO3NtpzxKEAC_-76" value="Item 2" style="text;strokeColor=none;fillColor=none;align=left;verticalAlign=middle;spacingLeft=4;spacingRight=4;overflow=hidden;points=[[0,0.5],[1,0.5]];portConstraint=eastwest;rotatable=0;whiteSpace=wrap;html=1;" vertex="1" parent="d3JeOFxIO3NtpzxKEAC_-74">
          <mxGeometry y="60" width="140" height="30" as="geometry" />
        </mxCell>
        <mxCell id="d3JeOFxIO3NtpzxKEAC_-77" value="Item 3" style="text;strokeColor=none;fillColor=none;align=left;verticalAlign=middle;spacingLeft=4;spacingRight=4;overflow=hidden;points=[[0,0.5],[1,0.5]];portConstraint=eastwest;rotatable=0;whiteSpace=wrap;html=1;" vertex="1" parent="d3JeOFxIO3NtpzxKEAC_-74">
          <mxGeometry y="90" width="140" height="30" as="geometry" />
        </mxCell>
      </root>
    </mxGraphModel>
  </diagram>
</mxfile>
